<?xml version="1.0" standalone="no"?>
<!DOCTYPE svg PUBLIC "-//W3C//DTD SVG 20010904//EN"
 "http://www.w3.org/TR/2001/REC-SVG-20010904/DTD/svg10.dtd">
<svg version="1.0" xmlns="http://www.w3.org/2000/svg"
 width="120.000000pt" height="68.000000pt" viewBox="0 0 120.000000 68.000000"
 preserveAspectRatio="xMidYMid meet">
<metadata>
Created by potrace 1.15, written by Peter Selinger 2001-2017
</metadata>
<g transform="translate(0.000000,68.000000) scale(0.100000,-0.100000)"
fill="#000000" stroke="none">
<path d="M312 397 c-235 -235 -262 -265 -262 -295 0 -42 30 -72 72 -72 28 0
58 26 260 227 l228 227 228 -227 c202 -201 232 -227 260 -227 42 0 72 30 72
73 0 29 -27 59 -263 295 -243 243 -265 262 -297 262 -33 0 -54 -19 -298 -263z"/>
</g>
</svg>
